<svg width="34" height="32" viewBox="0 0 34 32" fill="none" xmlns="http://www.w3.org/2000/svg">
<path d="M28.6472 15.7058C28.5001 12.2357 26.6281 8.88594 23.7466 6.94695C20.8718 5.00797 17.0611 4.52656 13.7918 5.68327L13.9656 5.65652C11.1978 6.17136 8.61048 7.66237 6.83881 9.84875C4.87993 12.2691 3.95732 15.5253 4.43868 18.6009C4.92005 21.6766 6.81206 24.5249 9.50635 26.0828C11.5254 27.2528 13.9121 27.6941 16.2454 27.6473C19.2071 27.5805 22.2023 26.7046 24.5088 24.8525C27.2098 22.6728 28.7942 19.1693 28.6472 15.7058Z" fill="white"/>
<path d="M24.8966 15.9065C24.7964 13.5062 23.4994 11.1928 21.5071 9.84886C19.5148 8.50494 16.8806 8.17063 14.6209 8.97966L14.7413 8.9596C12.8292 9.31396 11.0375 10.3436 9.81399 11.8547C8.45682 13.5262 7.82169 15.7795 8.14928 17.9057C8.48356 20.0319 9.79393 22.0043 11.6592 23.0808C13.0565 23.8898 14.7078 24.1974 16.3191 24.1639C18.3648 24.1171 20.4374 23.5154 22.0352 22.2316C23.9005 20.7206 24.9969 18.3002 24.8966 15.9065Z" fill="#CAE5E8"/>
<path d="M18.9196 5.72347C14.2865 4.17228 9.406 6.05778 6.47771 9.90232C3.59623 13.68 2.82739 19.6307 5.86264 23.522C9.23217 27.8413 15.6303 29.4126 20.7648 27.8346C25.5115 26.377 29.8906 21.904 29.69 16.6687C29.5764 13.6666 27.6977 10.5375 25.7054 8.37119C23.5861 6.07115 20.6043 4.58682 17.4354 4.96125C16.5529 5.06154 16.5462 6.46563 17.4354 6.35866C22.5565 5.74353 26.7216 10.4907 28.0588 15.044C29.4761 19.8781 25.4447 24.5918 21.1325 26.1898C16.7601 27.8079 11.3381 26.8651 7.94854 23.5889C4.63918 20.3862 4.81301 15.0908 7.21313 11.3733C9.67342 7.55548 14.4135 5.8037 18.8327 6.35197C19.2137 6.40546 19.2472 5.83045 18.9196 5.72347Z" fill="#5790D3"/>
<path d="M15.9642 1.33058C15.396 2.45386 15.7837 4.16552 15.884 5.36903C15.9576 6.32515 17.3281 6.33852 17.3816 5.36903C17.4484 4.11871 17.5354 2.20647 16.5726 1.25035C16.3988 1.08319 16.0779 1.10325 15.9642 1.33058Z" fill="#5790D3"/>
<path d="M14.8612 1.83215C15.9442 1.58476 16.9538 1.43766 18.0636 1.51121C19.0263 1.57807 19.0196 0.0803721 18.0636 0.0135104C16.82 -0.0667236 15.503 0.207409 14.4801 0.916143C14.0188 1.23708 14.2929 1.95919 14.8612 1.83215Z" fill="#5790D3"/>
<path d="M5.60184 6.01095C6.09658 6.98713 7.29998 7.61563 8.10893 8.32437C8.89115 9.01304 9.66667 10.0895 10.6829 10.4038C11.1174 10.5375 11.5721 10.0895 11.4317 9.65491C11.0907 8.57175 9.82044 7.76941 8.958 7.1008C8.08888 6.42549 7.09941 5.48274 5.96286 5.39582C5.6219 5.36239 5.47482 5.75019 5.60184 6.01095Z" fill="#5790D3"/>
<path d="M5.9829 7.09428C6.31718 6.33205 6.87877 5.74367 7.61418 5.36256C8.6237 4.83435 7.72783 3.30991 6.71831 3.83811C5.65531 4.39307 4.91321 5.34919 4.55219 6.49252C4.28476 7.32161 5.62188 7.91668 5.9829 7.09428Z" fill="#5790D3"/>
<path d="M1.13593 16.4682C2.1655 17.0699 3.33548 17.1769 4.51214 17.1702C5.52835 17.1635 5.48155 15.5121 4.51214 15.6257C3.44913 15.7461 2.37944 15.6859 1.31644 15.7996C0.982157 15.8263 0.808332 16.2743 1.13593 16.4682Z" fill="#5790D3"/>
<path d="M0.166418 14.8299C-0.0742631 16.0736 -0.0809486 17.2904 0.326871 18.5006C0.694578 19.5972 2.3058 19.1559 2.05844 18.0259C1.86455 17.1433 1.76427 16.2073 1.89798 15.3047C1.97152 14.8233 1.77764 14.3485 1.26954 14.2014C0.828289 14.0744 0.260016 14.3552 0.166418 14.8299Z" fill="#5790D3"/>
<path d="M2.11875 26.1764C2.63353 27.0121 3.37563 27.8747 4.29156 28.2758C4.76623 28.4831 5.32114 28.4162 5.60193 27.9348C5.88272 27.4534 5.68216 26.9252 5.26097 26.6243C4.70606 26.2299 4.1311 25.8421 3.70991 25.2537C3.42243 24.8458 2.90764 24.6519 2.44634 24.9261C2.02515 25.1601 1.85801 25.7485 2.11875 26.1764Z" fill="#5790D3"/>
<path d="M13.1028 25.1868C12.4811 25.7284 12.3941 26.6444 12.2471 27.4267C12.0666 28.3561 11.8927 29.2988 11.7724 30.2416C11.7323 30.5893 12.0599 30.9771 12.3875 31.0506C12.461 31.064 12.5345 31.0774 12.6081 31.084C12.949 31.1041 13.3569 30.8099 13.417 30.4689C13.5909 29.5395 13.6911 28.5834 13.7981 27.6407C13.8917 26.845 14.0789 25.9691 13.6443 25.2604C13.5307 25.0531 13.2766 25.0331 13.1028 25.1868Z" fill="#5790D3"/>
<path d="M10.3551 31.2111C11.4248 31.9533 13.0895 32.087 14.3464 31.9466C15.5298 31.8128 15.5766 29.9608 14.3464 30.0544C13.738 30.1012 13.123 30.1279 12.5146 30.0811C11.9129 30.0276 11.3379 29.8538 10.7295 29.8204C9.93395 29.7736 9.79356 30.8233 10.3551 31.2111Z" fill="#5790D3"/>
<path d="M8.85111 18.9822C8.04215 18.7214 7.10617 18.9755 6.27716 19.1092C5.22084 19.283 4.16452 19.4636 3.1082 19.6441C2.15885 19.8046 2.54661 21.329 3.50933 21.1084C4.5456 20.8743 5.58855 20.647 6.6315 20.4063C7.45382 20.2124 8.33632 20.0921 8.99819 19.5438C9.20544 19.3766 9.07842 19.0557 8.85111 18.9822Z" fill="#5790D3"/>
<path d="M2.78049 18.9353C1.75759 19.3967 2.05176 21.3758 2.33924 22.1915C2.7738 23.4084 4.50536 22.713 3.99058 21.4961C3.81007 21.0682 3.69641 20.6269 3.64293 20.1656C3.59613 19.7444 3.60281 19.3298 3.30865 19.0022C3.17494 18.8484 2.95431 18.8618 2.78049 18.9353Z" fill="#5790D3"/>
<path d="M22.2888 8.99302C23.0309 8.50493 23.6125 7.74939 24.2276 7.10752C24.8226 6.47902 25.6315 5.79034 25.9725 4.99469C26.28 4.27927 25.6182 3.38332 24.8293 3.85135C24.0671 4.29933 23.4988 5.15516 22.9506 5.83715C22.3957 6.52582 21.6871 7.2145 21.306 8.01015C21.0118 8.60522 21.6336 9.42093 22.2888 8.99302Z" fill="#5790D3"/>
<path d="M23.8132 3.76433C24.0405 4.21899 24.455 4.60679 24.8093 4.96784C25.1637 5.32889 25.4712 5.71 25.752 6.12455C26.5008 7.24782 28.112 6.05768 27.2362 4.97452C26.5141 4.07858 25.5247 3.00879 24.3146 2.89513C23.8399 2.85501 23.6327 3.40996 23.8132 3.76433Z" fill="#5790D3"/>
<path d="M22.5897 22.606C23.4856 24.1773 24.8895 25.5212 26.113 26.8383C26.9219 27.7142 28.2056 26.4104 27.4167 25.5345C26.2133 24.1973 25.0099 22.7063 23.5257 21.6699C22.944 21.2621 22.2755 22.0444 22.5897 22.606Z" fill="#5790D3"/>
<path d="M26.0597 28.6302C26.6815 28.4028 27.1762 27.9014 27.6776 27.4801C28.1791 27.0589 28.6939 26.6644 29.0148 26.0894C29.4894 25.2403 28.5535 24.3978 27.7311 24.8057C27.1695 25.0798 26.755 25.5545 26.3071 25.9824C25.8725 26.3903 25.3243 26.7647 25.0168 27.2796C24.629 27.9281 25.2842 28.9177 26.0597 28.6302Z" fill="#5790D3"/>
<path d="M24.9033 16.4147C25.8058 16.8962 26.8755 16.7624 27.8717 16.7156C29.1219 16.6555 30.3721 16.5351 31.6156 16.4014C32.8658 16.261 32.6452 14.5025 31.3816 14.6897C30.1314 14.8702 28.8745 14.9973 27.6176 15.131C26.695 15.2246 25.6988 15.1912 24.8966 15.686C24.6425 15.8464 24.6158 16.261 24.9033 16.4147Z" fill="#5790D3"/>
<path d="M32.3309 17.879C32.8323 17.4377 32.7922 16.5016 32.8858 15.8865C33.0061 15.0774 33.0796 14.3152 32.8791 13.5062C32.7521 12.9847 32.1637 12.6704 31.6556 12.8108C31.5754 12.8309 31.4952 12.871 31.4149 12.9111C31.0339 13.1184 30.84 13.6266 30.9603 14.0344C31.2277 14.9571 30.9068 15.9467 31.0339 16.8961C31.1074 17.4176 31.6757 18.454 32.3309 17.879Z" fill="#5790D3"/>
<path d="M21.0991 13.573C21.4133 13.9608 22.0551 13.827 22.4563 13.6866C23.0178 13.4927 23.5794 13.2988 24.141 13.0916C25.4313 12.6101 24.6291 10.7046 23.4056 11.3531C22.8641 11.6407 20.3436 12.6436 21.0991 13.573Z" fill="#5790D3"/>
<path d="M23.2983 11.1728C23.6326 11.788 24.007 12.3964 24.1808 13.0851C24.3279 13.6935 25.0098 14.0546 25.5982 13.8941C26.1464 13.747 26.6411 13.0583 26.4071 12.4766C25.9659 11.3868 25.3107 10.4374 24.134 10.0964C23.4922 9.90915 22.9975 10.6246 23.2983 11.1728Z" fill="#5790D3"/>
<path d="M19.655 27.634C19.1469 28.4163 19.4812 29.5128 19.9759 30.2082C20.3303 30.703 20.9587 30.8969 21.4802 30.4957C21.9816 30.1079 21.9883 29.4326 21.5805 28.9712C21.2462 28.5901 21.0055 27.9483 20.6378 27.507C20.3637 27.186 19.8556 27.3264 19.655 27.634Z" fill="#5790D3"/>
<path d="M4.7595 26.6646C5.90942 26.3972 6.85209 25.5547 7.6811 24.7524C8.4232 24.037 7.23985 22.8602 6.55124 23.6224C5.84257 24.4114 4.96676 25.0533 4.31157 25.889C4.03746 26.2434 4.27814 26.7783 4.7595 26.6646Z" fill="#5790D3"/>
<path d="M12.7152 15.0239C12.3274 14.4823 11.7591 14.1347 11.1908 13.8137C10.7362 13.553 10.1546 13.7469 9.95402 14.2283C9.75345 14.7097 10.0142 15.2579 10.5223 15.405C11.1574 15.5922 11.7925 15.7594 12.4611 15.6658C12.7218 15.6324 12.8622 15.2379 12.7152 15.0239Z" fill="#5790D3"/>
<path d="M9.81395 14.7833C9.78721 14.7632 9.76047 14.7431 9.73372 14.7231C9.82064 14.937 9.90755 15.1577 10.0011 15.3716C10.0145 15.278 10.0279 15.1911 10.0279 15.0975C9.99446 15.2245 9.95435 15.3583 9.92092 15.4853C10.0346 15.2847 10.0346 15.0774 10.1148 14.8769C9.94766 15.2914 10.3488 14.7498 10.4023 14.683C10.7499 14.2617 11.0575 13.8204 11.365 13.3658C10.6028 13.0448 9.84069 12.7239 9.07854 12.403C8.90471 13.2655 8.57712 13.9809 8.09576 14.7164C7.71468 15.2981 7.9821 16.1339 8.55706 16.4749C9.20556 16.856 9.90755 16.5751 10.3154 16.0135C10.9371 15.151 11.3249 14.1146 11.492 13.0716C11.5923 12.4565 11.3851 11.8413 10.77 11.594C10.1817 11.3599 9.54653 11.5672 9.20556 12.1088C8.71083 12.8911 8.04227 13.787 8.1225 14.7632C8.20273 15.7059 9.08522 16.1071 9.81395 15.6658C10.175 15.4519 10.1148 15.0106 9.81395 14.7833Z" fill="#5790D3"/>
<path d="M16.9204 11.7211C17.2146 11.3266 17.1945 10.8385 17.2012 10.3705C17.2079 9.84225 17.2413 9.31404 17.2881 8.79252C17.375 7.76954 15.6635 7.73611 15.6702 8.79252C15.6769 9.67509 15.5231 11.1461 16.2184 11.8147C16.4457 12.0286 16.7466 11.9484 16.9204 11.7211Z" fill="#5790D3"/>
<path d="M14.4871 8.82588C14.6743 9.31397 15.1758 9.441 15.6571 9.50787C16.2455 9.5881 16.8538 9.60147 17.4489 9.64159C17.3686 9.03983 17.2884 8.43808 17.2015 7.83632C16.4661 8.04359 15.7775 8.11714 15.022 7.93662C15.0955 8.51831 15.1758 9.10001 15.2493 9.68171C15.4365 9.5881 15.6638 9.59479 15.8711 9.56804C16.8004 9.42763 16.7001 7.99679 15.8711 7.78952C15.3028 7.64911 14.8014 7.77615 14.2866 8.04359C13.5712 8.41802 13.725 9.60816 14.5139 9.78868C15.5568 10.0227 16.68 10.0227 17.6829 9.61484C18.104 9.44769 18.4116 9.09332 18.338 8.60523C18.2712 8.17063 17.9035 7.78952 17.4355 7.80958C16.9408 7.82295 14.0392 7.66917 14.4871 8.82588Z" fill="#5790D3"/>
<path d="M16.4391 20.7541C15.7305 21.4762 15.7906 22.8201 15.6636 23.7562C15.5165 24.8861 17.4888 24.9597 17.4821 23.7562C17.4754 22.8669 17.676 21.5898 17.101 20.841C16.9472 20.627 16.6464 20.5401 16.4391 20.7541Z" fill="#5790D3"/>
<path d="M14.6406 24.2909C14.9415 25.4944 16.7466 25.6883 17.7561 25.6415C18.3913 25.6147 18.9395 25.1199 18.9395 24.458C18.9395 23.8763 18.3979 23.201 17.7561 23.2746C17.2815 23.3281 16.8001 23.3214 16.3187 23.3214C15.8574 23.3214 15.3627 23.2478 14.9616 23.522C14.7008 23.6958 14.5671 23.9833 14.6406 24.2909Z" fill="#5790D3"/>
<path d="M21.6673 19.5973C21.9213 19.0424 22.0617 18.4807 22.503 18.0461C21.9681 17.9057 21.4266 17.7653 20.8918 17.6182C20.992 18.0729 20.7982 18.6613 20.4171 18.9488C20.8984 19.1427 21.3731 19.3366 21.8545 19.5305C21.8211 19.3433 21.8812 19.136 21.9748 18.9688C21.9614 18.9889 22.142 18.688 22.162 18.7348C22.2222 18.6746 22.1821 18.6746 22.0283 18.7415C22.1286 18.7281 22.2222 18.7148 22.3225 18.7014C22.757 18.6278 23.0178 18.0796 22.8974 17.6851C22.5631 16.5618 21.3263 16.9429 20.7179 17.5781C20.163 18.1598 19.8488 18.9822 19.9357 19.7845C20.0093 20.4665 20.7246 21.075 21.4065 20.627C22.5899 19.8514 23.1314 18.4674 22.757 17.0967C22.5698 16.4147 21.6405 16.1339 21.1458 16.6688C20.4639 17.3976 19.9625 18.3805 20.2165 19.3901C20.3636 20.0252 21.3731 20.2325 21.6673 19.5973Z" fill="#5790D3"/>
<path d="M12.695 20.4666C12.7819 20.5602 12.7083 20.4599 12.695 20.4331C12.5144 20.1189 12.6548 20.3863 12.6615 20.4599C12.6682 20.5067 12.6682 20.5468 12.6548 20.5936C12.6816 20.5267 12.6816 20.5267 12.6548 20.5802C12.5947 20.6538 12.5679 20.714 12.4676 20.7541C12.354 20.8009 12.2537 20.7875 12.1467 20.734C12.2871 20.8009 12.0331 20.6471 12.1668 20.7541C12.2871 20.8477 12.1133 20.6471 12.1935 20.7875C12.227 20.841 12.2537 20.8945 12.2871 20.948C12.3674 21.0683 12.247 20.7808 12.2804 20.9346C12.2671 20.8009 12.2671 20.7741 12.2671 20.8343C12.2671 21.2221 12.5813 21.0416 13.2164 20.286C13.1629 20.2526 13.1629 20.2526 13.2298 20.2994C13.2833 20.3328 13.3301 20.3796 13.3568 20.4398C13.2699 20.3061 13.4103 20.627 13.3702 20.4799C13.3234 20.3195 13.3769 20.6872 13.3769 20.5267C13.3769 20.4799 13.3702 20.4331 13.3702 20.3863C13.3836 20.1523 13.3568 19.9584 13.2365 19.7511C13.2565 19.9183 13.2766 20.0788 13.3033 20.2459L13.3234 20.1791C13.4705 19.7979 13.1028 19.4636 12.7618 19.4369C12.7016 19.4302 12.7083 19.4302 12.7885 19.4369C12.6482 19.3968 12.5011 19.3968 12.3607 19.4369C12.2002 19.4837 12.0531 19.5773 11.9395 19.7043C11.7523 19.9116 11.6386 20.1991 11.6319 20.4799C11.6253 20.8744 11.7857 21.2689 12.0665 21.543C12.5412 22.0044 13.3836 22.0378 13.7646 21.4294C14.012 21.0349 13.9452 20.5468 13.7245 20.159C13.544 19.8447 13.2632 19.5305 12.9423 19.3633C12.4543 19.116 11.8726 19.1895 11.4915 19.5907C11.1105 19.9985 11.077 20.6337 11.4581 21.0483C11.7924 21.4093 12.3206 21.5096 12.695 21.1486C12.8955 20.9613 12.8688 20.6605 12.695 20.4666Z" fill="#5790D3"/>
<path d="M17.121 16.4213C16.8937 16.1873 16.6463 16.0536 16.3388 15.9399C16.5393 16.1405 16.7399 16.3411 16.9405 16.5417C16.8402 16.2742 16.9538 16.5684 16.9204 16.5684L16.8937 16.6086C16.9605 16.5684 17.0207 16.535 17.0876 16.5016C17.0876 16.5016 17.2881 16.4347 17.3617 16.4147C17.248 16.428 17.248 16.428 17.3617 16.4213C17.2948 16.4213 17.2346 16.3946 17.1812 16.3612C17.1076 15.5722 17.0006 15.3449 16.8669 15.6792C16.8402 15.7394 16.8068 15.7995 16.7733 15.8597C16.7399 15.9199 16.7065 15.9734 16.6664 16.0335C16.7132 15.9667 16.6998 15.9734 16.6263 16.0603C16.7867 15.9801 16.9472 15.9065 17.1143 16.0202C17.1678 16.0603 17.2146 16.1138 17.248 16.1806C17.0742 15.9466 17.0408 15.9132 17.1544 16.0737C16.5928 15.2713 15.4964 15.6123 15.3961 16.5484C15.2691 17.6717 16.7265 18.1798 17.5689 17.7586C18.3444 17.3708 19.0531 16.1472 18.6921 15.3048C18.2709 14.3085 17.0876 14.4222 16.2786 14.7899C15.356 15.2111 14.8546 16.2809 15.356 17.2103C15.5365 17.5446 15.9711 17.7118 16.3321 17.6048C16.6396 17.5179 16.8803 17.3841 17.1143 17.1769C17.3416 16.9897 17.3082 16.6219 17.121 16.4213Z" fill="#5790D3"/>
</svg>
