<svg width="147" height="185" viewBox="0 0 147 185" fill="none" xmlns="http://www.w3.org/2000/svg">
<g opacity="0.12">
<path d="M121.354 90.8114C120.5 70.7473 109.629 51.379 92.8965 40.1678C76.2026 28.9567 54.0734 26.1732 35.0889 32.8612L36.0983 32.7066C20.0255 35.6834 5.00096 44.3044 -5.28717 56.9459C-16.6623 70.9406 -22.0199 89.7676 -19.2247 107.551C-16.4294 125.334 -5.44246 141.803 10.2033 150.81C21.9279 157.576 35.7877 160.127 49.337 159.857C66.5356 159.47 83.9284 154.406 97.3224 143.697C113.007 131.094 122.208 110.837 121.354 90.8114Z" fill="white"/>
<path d="M99.5746 91.9709C98.9923 78.0922 91.4606 64.7161 79.8913 56.9456C68.322 49.1751 53.0257 47.2422 39.9035 51.9199L40.6023 51.804C29.4989 53.8529 19.0943 59.8064 11.9896 68.5434C4.10855 78.2082 0.420349 91.2364 2.32268 103.53C4.26384 115.824 11.8732 127.228 22.7048 133.452C30.8189 138.13 40.4082 139.908 49.7645 139.715C61.6444 139.444 73.6796 135.965 82.9583 128.543C93.79 119.806 100.157 105.811 99.5746 91.9709Z" fill="#CAE5E8"/>
<path d="M64.8659 33.093C37.9615 24.124 9.6206 35.0259 -7.38392 57.255C-24.1167 79.0974 -28.5813 113.504 -10.9556 136.004C8.61121 160.978 45.7649 170.063 75.5811 160.939C103.146 152.511 128.575 126.648 127.41 96.3781C126.75 79.0201 115.841 60.9276 104.271 48.402C91.9645 35.1032 74.6493 26.5209 56.2472 28.6858C51.1225 29.2657 51.0837 37.3841 56.2472 36.7656C85.9857 33.2089 110.173 60.657 117.937 86.9839C126.168 114.935 102.757 142.189 77.7164 151.429C52.326 160.784 20.8405 155.333 1.15716 136.39C-18.0603 117.873 -17.0509 87.2545 -3.11338 65.76C11.1735 43.6856 38.6991 33.5569 64.3612 36.7269C66.5741 37.0362 66.7682 33.7115 64.8659 33.093Z" fill="#5790D3"/>
<path d="M47.7046 7.69416C44.4046 14.1889 46.6564 24.0857 47.2387 31.0443C47.6658 36.5726 55.6245 36.6499 55.9351 31.0443C56.3234 23.815 56.8281 12.7585 51.2375 7.23025C50.2281 6.26377 48.3646 6.37975 47.7046 7.69416Z" fill="#5790D3"/>
<path d="M41.299 10.5934C47.5883 9.16303 53.4506 8.31253 59.8953 8.73778C65.4858 9.12437 65.447 0.464709 59.8953 0.0781168C52.6742 -0.385794 45.026 1.19923 39.0861 5.29711C36.4073 7.15275 37.999 11.3279 41.299 10.5934Z" fill="#5790D3"/>
<path d="M-12.4704 34.7551C-9.59751 40.3994 -2.60935 44.0333 2.08825 48.1312C6.63056 52.1131 11.134 58.3372 17.0352 60.1542C19.5587 60.9274 22.1986 58.3372 21.3834 55.8244C19.4034 49.5616 12.027 44.9225 7.01879 41.0566C1.97178 37.152 -3.77404 31.701 -10.374 31.1985C-12.354 31.0052 -13.2081 33.2474 -12.4704 34.7551Z" fill="#5790D3"/>
<path d="M-10.2571 41.0181C-8.31594 36.6109 -5.05479 33.2089 -0.784251 31.0054C5.07804 27.9513 -0.124258 19.137 -5.98655 22.1911C-12.1594 25.3998 -16.4688 30.928 -18.5652 37.5388C-20.1182 42.3325 -12.3535 45.7732 -10.2571 41.0181Z" fill="#5790D3"/>
<path d="M31.088 145.63C27.4774 148.762 26.9727 154.058 26.1186 158.581C25.0704 163.955 24.061 169.406 23.3622 174.857C23.1293 176.867 25.0316 179.109 26.9339 179.534C27.361 179.612 27.788 179.689 28.2151 179.728C30.1951 179.844 32.5633 178.143 32.9127 176.171C33.9221 170.797 34.5044 165.269 35.1256 159.818C35.6691 155.218 36.7562 150.153 34.2327 146.056C33.5727 144.857 32.0974 144.741 31.088 145.63Z" fill="#5790D3"/>
<path d="M15.1326 180.462C21.3443 184.753 31.0113 185.527 38.31 184.715C45.1817 183.942 45.4535 173.233 38.31 173.774C34.7771 174.045 31.2054 174.199 27.6725 173.929C24.1784 173.62 20.8396 172.614 17.3067 172.421C12.6868 172.151 11.8715 178.22 15.1326 180.462Z" fill="#5790D3"/>
<path d="M6.39822 109.754C1.70062 108.247 -3.73462 109.716 -8.54869 110.489C-14.6827 111.494 -20.8168 112.538 -26.9509 113.582C-32.4637 114.509 -30.212 123.324 -24.6215 122.048C-18.6039 120.695 -12.5475 119.38 -6.49106 117.989C-1.71582 116.868 3.40884 116.172 7.25233 113.002C8.45585 112.035 7.71821 110.18 6.39822 109.754Z" fill="#5790D3"/>
<path d="M84.4307 51.9973C88.7401 49.1751 92.1177 44.8066 95.6894 41.0954C99.1447 37.4614 103.842 33.4795 105.822 28.8791C107.608 24.7425 103.765 19.5622 99.1835 22.2683C94.7576 24.8585 91.4577 29.8069 88.2742 33.7501C85.0519 37.732 80.9366 41.7139 78.7237 46.3144C77.0155 49.755 80.626 54.4714 84.4307 51.9973Z" fill="#5790D3"/>
<path d="M93.283 21.7659C94.603 24.3947 97.01 26.6369 99.0677 28.7245C101.125 30.8121 102.911 33.0157 104.542 35.4126C108.89 41.9073 118.246 35.026 113.16 28.7632C108.968 23.5829 103.222 17.3974 96.1948 16.7402C93.4383 16.5082 92.2348 19.7169 93.283 21.7659Z" fill="#5790D3"/>
<path d="M86.1784 130.708C91.3807 139.793 99.5335 147.563 106.638 155.179C111.336 160.244 118.79 152.705 114.209 147.641C107.221 139.909 100.232 131.288 91.6136 125.296C88.236 122.937 84.3537 127.461 86.1784 130.708Z" fill="#5790D3"/>
<path d="M106.329 165.54C109.939 164.225 112.812 161.326 115.724 158.89C118.636 156.455 121.625 154.174 123.489 150.849C126.245 145.939 120.81 141.068 116.035 143.426C112.773 145.011 110.366 147.756 107.765 150.23C105.242 152.589 102.058 154.754 100.272 157.73C98.0207 161.48 101.825 167.202 106.329 165.54Z" fill="#5790D3"/>
<path d="M99.6131 94.9089C104.854 97.6924 111.066 96.9192 116.851 96.6486C124.111 96.3006 131.37 95.6048 138.592 94.8316C145.851 94.0197 144.57 83.8524 137.233 84.9348C129.973 85.9786 122.674 86.7131 115.375 87.4863C110.018 88.0276 104.233 87.8343 99.5743 90.695C98.099 91.6229 97.9437 94.0197 99.6131 94.9089Z" fill="#5790D3"/>
<path d="M142.745 103.376C145.657 100.824 145.424 95.4117 145.967 91.8551C146.666 87.1773 147.093 82.7702 145.929 78.0924C145.191 75.077 141.774 73.26 138.824 74.0718C138.358 74.1878 137.892 74.4198 137.426 74.6517C135.213 75.8502 134.087 78.7883 134.786 81.1465C136.339 86.4814 134.476 92.203 135.213 97.6926C135.64 100.708 138.94 106.7 142.745 103.376Z" fill="#5790D3"/>
<path d="M77.5226 78.4791C79.3473 80.7214 83.0743 79.9482 85.4037 79.1364C88.6648 78.0152 91.926 76.8941 95.1871 75.6957C102.68 72.9122 98.0212 61.8944 90.9165 65.6443C87.7719 67.3066 73.1356 73.1055 77.5226 78.4791Z" fill="#5790D3"/>
<path d="M90.2935 64.6001C92.2346 68.1567 94.4087 71.6747 95.4181 75.6566C96.2722 79.1746 100.232 81.2622 103.649 80.3344C106.832 79.4839 109.705 75.502 108.346 72.1386C105.784 65.8372 101.979 60.3476 95.1464 58.376C91.4193 57.2935 88.5464 61.43 90.2935 64.6001Z" fill="#5790D3"/>
<path d="M69.1367 159.78C66.1861 164.303 68.1273 170.643 71.0002 174.663C73.0578 177.524 76.7072 178.645 79.7354 176.326C82.6472 174.083 82.686 170.179 80.3178 167.511C78.3766 165.308 76.979 161.597 74.8437 159.045C73.252 157.189 70.3014 158.001 69.1367 159.78Z" fill="#5790D3"/>
<path d="M-17.3617 154.173C-10.6842 152.627 -5.21009 147.756 -0.396021 143.117C3.91335 138.98 -2.95835 132.176 -6.95713 136.583C-11.0724 141.145 -16.1582 144.857 -19.9629 149.689C-21.5546 151.738 -20.157 154.831 -17.3617 154.173Z" fill="#5790D3"/>
<path d="M28.8372 86.8679C26.5855 83.7365 23.2855 81.7263 19.9856 79.8706C17.3456 78.3629 13.968 79.484 12.8033 82.2675C11.6386 85.0509 13.1527 88.221 16.1033 89.0715C19.7915 90.154 23.4797 91.1204 27.362 90.5792C28.8761 90.3859 29.6914 88.105 28.8372 86.8679Z" fill="#5790D3"/>
<path d="M11.9895 85.4763C11.8342 85.3603 11.6789 85.2444 11.5236 85.1284C12.0283 86.3655 12.533 87.6412 13.0765 88.8783C13.1541 88.3371 13.2318 87.8345 13.2318 87.2933C13.0377 88.0278 12.8047 88.801 12.6106 89.5355C13.2706 88.3758 13.2706 87.1773 13.7365 86.0175C12.7659 88.4144 15.0953 85.283 15.4059 84.8964C17.4247 82.4609 19.2106 79.9094 20.9964 77.2806C16.5706 75.4249 12.1447 73.5693 7.71891 71.7136C6.70951 76.7007 4.80718 80.8372 2.01191 85.0897C-0.201005 88.4531 1.35192 93.2855 4.69071 95.2571C8.45655 97.4607 12.533 95.837 14.9012 92.5896C18.5117 87.6026 20.7635 81.6104 21.7341 75.5796C22.3164 72.0229 21.1129 68.4663 17.5412 67.0359C14.1247 65.6828 10.4365 66.8812 8.45655 70.0126C5.58364 74.5358 1.70133 79.7161 2.16721 85.3603C2.63308 90.8113 7.75774 93.1308 11.9895 90.5793C14.0859 89.3422 13.7365 86.7907 11.9895 85.4763Z" fill="#5790D3"/>
<path d="M53.2568 67.77C54.965 65.4891 54.8485 62.667 54.8873 59.9609C54.9262 56.9068 55.1203 53.8527 55.392 50.8373C55.8967 44.9224 45.9581 44.7291 45.9969 50.8373C46.0357 55.9403 45.1428 64.4453 49.1804 68.3113C50.5003 69.5484 52.2474 69.0845 53.2568 67.77Z" fill="#5790D3"/>
<path d="M39.1266 51.0309C40.2136 53.853 43.1253 54.5876 45.9206 54.9741C49.337 55.4381 52.87 55.5154 56.3252 55.7473C55.8593 52.268 55.3935 48.7887 54.8888 45.3093C50.6182 46.5078 46.6194 46.933 42.2324 45.8892C42.6595 49.2526 43.1253 52.6159 43.5524 55.9793C44.6394 55.4381 45.9594 55.4767 47.163 55.3221C52.5594 54.5102 51.977 46.2372 47.163 45.0387C43.863 44.2269 40.9513 44.9614 37.9619 46.5078C33.8078 48.6727 34.7007 55.554 39.2819 56.5978C45.3383 57.9509 51.8606 57.9509 57.684 55.5927C60.1299 54.6262 61.9157 52.5773 61.4887 49.7551C61.1005 47.2423 58.9652 45.0387 56.2476 45.1547C53.3747 45.232 36.5254 44.3429 39.1266 51.0309Z" fill="#5790D3"/>
<path d="M50.4621 119.999C46.3468 124.174 46.6962 131.944 45.9586 137.357C45.1045 143.89 56.5573 144.315 56.5185 137.357C56.4797 132.215 57.6444 124.831 54.3056 120.501C53.4126 119.264 51.6656 118.762 50.4621 119.999Z" fill="#5790D3"/>
<path d="M40.0183 140.45C41.7653 147.408 52.2475 148.529 58.1098 148.259C61.798 148.104 64.9815 145.243 64.9815 141.416C64.9815 138.053 61.8368 134.148 58.1098 134.573C55.3534 134.883 52.5581 134.844 49.7629 134.844C47.0841 134.844 44.2111 134.419 41.8818 136.004C40.3677 137.009 39.5912 138.671 40.0183 140.45Z" fill="#5790D3"/>
<path d="M80.822 113.311C82.2973 110.103 83.1126 106.855 85.6749 104.342C82.5691 103.53 79.4244 102.719 76.3185 101.868C76.9009 104.497 75.775 107.899 73.5621 109.561C76.3574 110.682 79.1138 111.804 81.9091 112.925C81.7149 111.842 82.0644 110.644 82.6079 109.677C82.5302 109.793 83.5785 108.054 83.6949 108.324C84.0443 107.976 83.8114 107.976 82.9185 108.363C83.5008 108.286 84.0443 108.208 84.6267 108.131C87.1502 107.706 88.6643 104.536 87.9655 102.255C86.0243 95.76 78.842 97.9635 75.3091 101.636C72.0868 105 70.2621 109.755 70.7668 114.394C71.1939 118.337 75.348 121.855 79.3079 119.265C86.1796 114.78 89.3243 106.778 87.1502 98.8527C86.0631 94.9095 80.6667 93.2858 77.7938 96.3785C73.8339 100.592 70.9221 106.275 72.3974 112.113C73.2515 115.785 79.1138 116.984 80.822 113.311Z" fill="#5790D3"/>
<path d="M28.7198 118.337C29.2245 118.878 28.7974 118.298 28.7198 118.144C27.6716 116.327 28.4868 117.873 28.5257 118.298C28.5645 118.569 28.5645 118.801 28.4868 119.072C28.6421 118.685 28.6421 118.685 28.4868 118.994C28.1374 119.42 27.9821 119.767 27.3998 119.999C26.7398 120.27 26.1575 120.193 25.5363 119.883C26.3516 120.27 24.8763 119.381 25.6528 119.999C26.3516 120.541 25.3422 119.381 25.808 120.193C26.0022 120.502 26.1574 120.811 26.3516 121.121C26.8174 121.816 26.1186 120.154 26.3127 121.043C26.2351 120.27 26.2351 120.115 26.2351 120.463C26.2351 122.706 28.0598 121.662 31.748 117.293C31.4374 117.1 31.4374 117.1 31.8256 117.371C32.1362 117.564 32.408 117.834 32.5633 118.182C32.0586 117.409 32.8739 119.265 32.6409 118.414C32.3692 117.487 32.6797 119.613 32.6797 118.685C32.6797 118.414 32.6409 118.144 32.6409 117.873C32.7186 116.52 32.5633 115.399 31.8644 114.201C31.9809 115.167 32.0974 116.095 32.2527 117.061L32.3692 116.675C33.2233 114.471 31.088 112.538 29.108 112.384C28.7586 112.345 28.7974 112.345 29.2633 112.384C28.448 112.152 27.5939 112.152 26.7786 112.384C25.8469 112.654 24.9928 113.195 24.3328 113.93C23.2457 115.128 22.5857 116.791 22.5469 118.414C22.5081 120.695 23.4398 122.976 25.0704 124.561C27.8268 127.229 32.7186 127.422 34.9315 123.904C36.3679 121.623 35.9797 118.801 34.6985 116.559C33.6503 114.742 32.0197 112.925 30.1562 111.958C27.3221 110.528 23.9445 110.953 21.7316 113.273C19.5187 115.631 19.3246 119.304 21.5375 121.7C23.4787 123.788 26.5457 124.368 28.7198 122.28C29.8845 121.198 29.7292 119.458 28.7198 118.337Z" fill="#5790D3"/>
<path d="M54.4217 94.9477C53.1017 93.5946 51.6653 92.8215 49.8794 92.1642C51.0441 93.324 52.2088 94.4838 53.3735 95.6436C52.7912 94.0972 53.4511 95.7982 53.257 95.7982L53.1017 96.0302C53.49 95.7982 53.8394 95.6049 54.2276 95.4116C54.2276 95.4116 55.3923 95.025 55.8194 94.9091C55.1594 94.9864 55.1594 94.9864 55.8194 94.9477C55.4311 94.9477 55.0817 94.7931 54.7711 94.5998C54.3441 90.038 53.7229 88.7236 52.9464 90.6565C52.7912 91.0045 52.597 91.3524 52.4029 91.7003C52.2088 92.0483 52.0147 92.3575 51.7818 92.7055C52.0535 92.3189 51.9759 92.3575 51.5488 92.8601C52.4806 92.3962 53.4123 91.9709 54.3829 92.6282C54.6935 92.8601 54.9652 93.1694 55.1594 93.556C54.15 92.2029 53.9559 92.0096 54.6158 92.9374C51.3547 88.2983 44.9877 90.2699 44.4054 95.6822C43.6677 102.177 52.1312 105.115 57.0229 102.68C61.5264 100.437 65.6416 93.3627 63.5452 88.4916C61.0993 82.7314 54.2276 83.3886 49.53 85.5149C44.1724 87.9504 41.2607 94.1359 44.1724 99.5095C45.2206 101.442 47.7441 102.409 49.8406 101.79C51.6265 101.288 53.0241 100.515 54.3829 99.3162C55.7029 98.2337 55.5088 96.1075 54.4217 94.9477Z" fill="#5790D3"/>
</g>
</svg>
