<svg width="22" height="20" viewBox="0 0 22 20" fill="none" xmlns="http://www.w3.org/2000/svg">
<path d="M18.23 9.81615C18.1364 7.64732 16.9452 5.55371 15.1115 4.34185C13.2821 3.12998 10.857 2.8291 8.7766 3.55204L8.88722 3.53533C7.12587 3.8571 5.4794 4.78898 4.35197 6.15547C3.10541 7.66821 2.5183 9.70332 2.82462 11.6256C3.13094 13.5479 4.33495 15.3281 6.0495 16.3017C7.33434 17.033 8.85318 17.3088 10.338 17.2796C12.2227 17.2378 14.1287 16.6904 15.5965 15.5328C17.3153 14.1705 18.3236 11.9808 18.23 9.81615Z" fill="white"/>
<path d="M15.8432 9.94155C15.7794 8.44134 14.9541 6.99546 13.6862 6.15551C12.4184 5.31556 10.7421 5.10661 9.30413 5.61225L9.38071 5.59972C8.16394 5.8212 7.02374 6.46474 6.24518 7.40916C5.38152 8.45388 4.97735 9.86215 5.18582 11.191C5.39854 12.5199 6.23242 13.7527 7.41941 14.4255C8.30859 14.9311 9.35944 15.1233 10.3848 15.1024C11.6866 15.0732 13.0055 14.6971 14.0223 13.8947C15.2093 12.9503 15.9071 11.4376 15.8432 9.94155Z" fill="#CAE5E8"/>
<path d="M12.0394 3.57714C9.09108 2.60764 5.98532 3.78608 4.12187 6.18892C2.2882 8.54998 1.79894 12.2692 3.73046 14.7013C5.87471 17.4008 9.94622 18.3828 13.2136 17.3966C16.2343 16.4856 19.021 13.69 18.8933 10.4179C18.821 8.54162 17.6255 6.58591 16.3577 5.23196C15.009 3.79444 13.1115 2.86673 11.0949 3.10075C10.5333 3.16343 10.5291 4.04099 11.0949 3.97413C14.3538 3.58967 17.0044 6.55666 17.8553 9.40246C18.7572 12.4238 16.1918 15.3699 13.4476 16.3686C10.6652 17.3799 7.21486 16.7907 5.05785 14.743C2.9519 12.7414 3.06251 9.43172 4.58986 7.10827C6.1555 4.72214 9.17191 3.62728 11.9841 3.96995C12.2266 4.00338 12.2479 3.644 12.0394 3.57714Z" fill="#5790D3"/>
<path d="M10.1589 0.831674C9.79726 1.53372 10.044 2.60351 10.1078 3.3557C10.1546 3.95328 11.0268 3.96164 11.0608 3.3557C11.1034 2.57426 11.1587 1.3791 10.546 0.781528C10.4354 0.677056 10.2312 0.689593 10.1589 0.831674Z" fill="#5790D3"/>
<path d="M9.4572 1.14509C10.1464 0.990475 10.7888 0.89854 11.4951 0.944508C12.1077 0.986296 12.1035 0.0502326 11.4951 0.00844401C10.7038 -0.0417023 9.86563 0.129631 9.21469 0.572589C8.92114 0.773175 9.09557 1.22449 9.4572 1.14509Z" fill="#5790D3"/>
<path d="M3.5649 3.75681C3.87973 4.36693 4.64553 4.75974 5.16032 5.2027C5.65809 5.63312 6.15161 6.30592 6.79829 6.50232C7.07483 6.5859 7.36413 6.30592 7.27479 6.03429C7.05781 5.35732 6.24946 4.85585 5.70064 4.43797C5.14756 4.0159 4.5179 3.42668 3.79464 3.37236C3.57766 3.35147 3.48406 3.59384 3.5649 3.75681Z" fill="#5790D3"/>
<path d="M3.8073 4.43392C4.02002 3.95753 4.3774 3.58979 4.84539 3.3516C5.48781 3.02147 4.91771 2.06869 4.27529 2.39882C3.59883 2.74567 3.12659 3.34324 2.89685 4.05783C2.72667 4.576 3.57756 4.94792 3.8073 4.43392Z" fill="#5790D3"/>
<path d="M0.722684 10.2927C1.37787 10.6688 2.1224 10.7357 2.87118 10.7315C3.51786 10.7273 3.48808 9.69516 2.87118 9.7662C2.19473 9.84142 1.51401 9.80381 0.837554 9.87485C0.624831 9.89157 0.514216 10.1715 0.722684 10.2927Z" fill="#5790D3"/>
<path d="M0.105902 9.26883C-0.0472583 10.0461 -0.0515128 10.8067 0.208009 11.563C0.442004 12.2484 1.46733 11.9726 1.30991 11.2663C1.18653 10.7147 1.12272 10.1297 1.20781 9.56553C1.25461 9.26465 1.13123 8.96796 0.807887 8.87602C0.527093 8.79662 0.165465 8.97213 0.105902 9.26883Z" fill="#5790D3"/>
<path d="M1.34834 16.3603C1.67593 16.8826 2.14817 17.4217 2.73103 17.6724C3.0331 17.802 3.38622 17.7602 3.56491 17.4593C3.7436 17.1584 3.61596 16.8283 3.34793 16.6403C2.99481 16.3937 2.62893 16.1513 2.3609 15.7836C2.17796 15.5287 1.85036 15.4075 1.55681 15.5788C1.28877 15.7251 1.18241 16.0928 1.34834 16.3603Z" fill="#5790D3"/>
<path d="M8.33802 15.7418C7.94236 16.0803 7.88705 16.6528 7.79345 17.1417C7.67858 17.7226 7.56797 18.3118 7.49139 18.901C7.46586 19.1183 7.67433 19.3607 7.8828 19.4066C7.92959 19.415 7.97639 19.4233 8.02319 19.4275C8.24017 19.4401 8.49969 19.2562 8.53798 19.0431C8.6486 18.4622 8.71241 17.8646 8.78049 17.2754C8.84005 16.7781 8.95917 16.2307 8.68263 15.7877C8.61031 15.6582 8.44864 15.6457 8.33802 15.7418Z" fill="#5790D3"/>
<path d="M6.58942 19.5071C7.27013 19.971 8.32949 20.0545 9.12933 19.9668C9.88237 19.8832 9.91215 18.7257 9.12933 18.7842C8.74217 18.8134 8.35076 18.8301 7.96361 18.8009C7.58071 18.7675 7.21482 18.6588 6.82767 18.6379C6.32139 18.6087 6.23204 19.2647 6.58942 19.5071Z" fill="#5790D3"/>
<path d="M5.63252 11.8638C5.11773 11.7009 4.52211 11.8597 3.99456 11.9432C3.32235 12.0519 2.65015 12.1647 1.97794 12.2776C1.37381 12.3778 1.62057 13.3306 2.23321 13.1927C2.89265 13.0465 3.55635 12.9044 4.22004 12.7539C4.74334 12.6328 5.30493 12.5575 5.72612 12.2149C5.85801 12.1104 5.77717 11.9098 5.63252 11.8638Z" fill="#5790D3"/>
<path d="M1.76953 11.8347C1.1186 12.123 1.3058 13.3599 1.48874 13.8698C1.76528 14.6303 2.86718 14.1957 2.53959 13.4352C2.42472 13.1677 2.35239 12.8919 2.31836 12.6036C2.28858 12.3403 2.29283 12.0812 2.10564 11.8764C2.02055 11.7803 1.88015 11.7887 1.76953 11.8347Z" fill="#5790D3"/>
<path d="M14.1839 5.62076C14.6561 5.3157 15.0263 4.84349 15.4177 4.44232C15.7963 4.04951 16.3111 3.61909 16.5281 3.1218C16.7238 2.67466 16.3026 2.1147 15.8006 2.40722C15.3156 2.6872 14.9539 3.22209 14.6051 3.64834C14.252 4.07876 13.801 4.50918 13.5585 5.00647C13.3713 5.37838 13.7669 5.8882 14.1839 5.62076Z" fill="#5790D3"/>
<path d="M15.1539 2.35289C15.2986 2.63705 15.5623 2.87942 15.7878 3.10508C16.0133 3.33074 16.209 3.56893 16.3877 3.82802C16.8642 4.53007 17.8895 3.78624 17.3322 3.10926C16.8727 2.54929 16.2431 1.88068 15.473 1.80964C15.1709 1.78456 15.0391 2.13141 15.1539 2.35289Z" fill="#5790D3"/>
<path d="M14.3754 14.1288C14.9455 15.1108 15.8389 15.9507 16.6175 16.774C17.1323 17.3214 17.9491 16.5065 17.4471 15.9591C16.6813 15.1233 15.9155 14.1914 14.971 13.5437C14.6009 13.2888 14.1754 13.7777 14.3754 14.1288Z" fill="#5790D3"/>
<path d="M16.5835 17.894C16.9792 17.752 17.294 17.4385 17.6131 17.1753C17.9322 16.912 18.2598 16.6655 18.464 16.3061C18.7661 15.7754 18.1704 15.2488 17.6471 15.5037C17.2898 15.6751 17.026 15.9718 16.7409 16.2392C16.4644 16.4941 16.1155 16.7281 15.9198 17.0499C15.6731 17.4553 16.09 18.0737 16.5835 17.894Z" fill="#5790D3"/>
<path d="M15.8472 10.2592C16.4216 10.5601 17.1023 10.4765 17.7362 10.4473C18.5318 10.4097 19.3274 10.3344 20.1187 10.2509C20.9143 10.1631 20.7739 9.06407 19.9698 9.18107C19.1742 9.2939 18.3744 9.3733 17.5745 9.45688C16.9874 9.51538 16.3535 9.49449 15.843 9.80372C15.6813 9.90401 15.6643 10.1631 15.8472 10.2592Z" fill="#5790D3"/>
<path d="M20.574 11.1743C20.893 10.8985 20.8675 10.3135 20.9271 9.92905C21.0037 9.4234 21.0505 8.94702 20.9228 8.44138C20.842 8.11542 20.4676 7.91902 20.1443 8.00677C20.0932 8.01931 20.0422 8.04438 19.9911 8.06946C19.7486 8.199 19.6252 8.51659 19.7018 8.7715C19.872 9.34819 19.6678 9.96666 19.7486 10.5601C19.7954 10.886 20.157 11.5337 20.574 11.1743Z" fill="#5790D3"/>
<path d="M13.4266 8.48331C13.6265 8.72569 14.0349 8.64211 14.2902 8.55435C14.6476 8.43317 15.005 8.31198 15.3623 8.18244C16.1834 7.88156 15.6729 6.69058 14.8943 7.09593C14.5497 7.27562 12.9458 7.90245 13.4266 8.48331Z" fill="#5790D3"/>
<path d="M14.826 6.98308C15.0387 7.36753 15.277 7.74781 15.3876 8.17823C15.4812 8.55851 15.9152 8.78417 16.2896 8.68387C16.6384 8.59194 16.9533 8.16152 16.8044 7.79796C16.5236 7.1168 16.1066 6.52341 15.3578 6.31029C14.9494 6.19328 14.6346 6.64041 14.826 6.98308Z" fill="#5790D3"/>
<path d="M12.5078 17.2713C12.1845 17.7603 12.3972 18.4456 12.712 18.8802C12.9375 19.1894 13.3374 19.3106 13.6693 19.0599C13.9883 18.8175 13.9926 18.3955 13.7331 18.1071C13.5204 17.8689 13.3672 17.4678 13.1332 17.1919C12.9588 16.9914 12.6354 17.0791 12.5078 17.2713Z" fill="#5790D3"/>
<path d="M3.02882 16.6654C3.76059 16.4982 4.36047 15.9717 4.88802 15.4702C5.36026 15.0231 4.60722 14.2876 4.16902 14.764C3.71804 15.2571 3.16071 15.6583 2.74377 16.1806C2.56934 16.4021 2.7225 16.7364 3.02882 16.6654Z" fill="#5790D3"/>
<path d="M8.09124 9.38995C7.84448 9.05146 7.48285 8.83416 7.12122 8.63358C6.83192 8.4706 6.46179 8.59179 6.33415 8.89267C6.20652 9.19354 6.37244 9.53621 6.69578 9.62814C7.09995 9.74515 7.50412 9.84962 7.92957 9.79112C8.09549 9.77023 8.18484 9.52367 8.09124 9.38995Z" fill="#5790D3"/>
<path d="M6.24511 9.23956C6.22809 9.22703 6.21107 9.21449 6.19406 9.20195C6.24936 9.33568 6.30467 9.47358 6.36423 9.6073C6.37274 9.5488 6.38125 9.49447 6.38125 9.43597C6.35998 9.51537 6.33445 9.59894 6.31318 9.67834C6.38551 9.55298 6.38551 9.42343 6.43656 9.29807C6.3302 9.55715 6.58547 9.21867 6.6195 9.17688C6.84073 8.91361 7.03644 8.63781 7.23214 8.35365C6.74713 8.15306 6.26213 7.95248 5.77712 7.75189C5.6665 8.29096 5.45803 8.7381 5.15171 9.19777C4.90921 9.56133 5.07939 10.0837 5.44527 10.2968C5.85795 10.535 6.30467 10.3595 6.56419 10.0085C6.95986 9.4694 7.20662 8.82168 7.31298 8.16978C7.37679 7.78532 7.24491 7.40087 6.8535 7.24625C6.4791 7.09999 6.07493 7.22953 5.85795 7.56802C5.54312 8.05695 5.11768 8.61691 5.16873 9.22703C5.21978 9.81624 5.78137 10.067 6.24511 9.79117C6.47485 9.65745 6.43656 9.38164 6.24511 9.23956Z" fill="#5790D3"/>
<path d="M10.7673 7.32554C10.9545 7.07899 10.9417 6.77393 10.946 6.48141C10.9503 6.15128 10.9715 5.82115 11.0013 5.4952C11.0566 4.85584 9.96748 4.83494 9.97173 5.4952C9.97599 6.04681 9.87813 6.96616 10.3206 7.38405C10.4652 7.51777 10.6567 7.46762 10.7673 7.32554Z" fill="#5790D3"/>
<path d="M9.21883 5.51614C9.33795 5.8212 9.65704 5.9006 9.96336 5.94239C10.3377 5.99253 10.7249 6.00089 11.1036 6.02596C11.0525 5.64987 11.0014 5.27377 10.9461 4.89767C10.4781 5.02722 10.0399 5.07318 9.55918 4.96035C9.60598 5.32391 9.65704 5.68748 9.70384 6.05104C9.82296 5.99253 9.96761 5.99671 10.0995 5.98C10.6909 5.89224 10.6271 4.99796 10.0995 4.86842C9.73787 4.78066 9.41879 4.86006 9.09119 5.02722C8.63597 5.26123 8.73382 6.00507 9.23585 6.1179C9.89954 6.26416 10.6143 6.26416 11.2525 6.00925C11.5205 5.90478 11.7162 5.6833 11.6694 5.37824C11.6269 5.10661 11.3929 4.86842 11.095 4.88096C10.7802 4.88931 8.93378 4.7932 9.21883 5.51614Z" fill="#5790D3"/>
<path d="M10.4614 12.9712C10.0104 13.4225 10.0487 14.2625 9.96788 14.8475C9.87428 15.5537 11.1293 15.5997 11.1251 14.8475C11.1208 14.2917 11.2485 13.4936 10.8826 13.0255C10.7847 12.8918 10.5933 12.8375 10.4614 12.9712Z" fill="#5790D3"/>
<path d="M9.31647 15.1818C9.50792 15.934 10.6566 16.0552 11.299 16.026C11.7032 16.0093 12.0521 15.7 12.0521 15.2863C12.0521 14.9228 11.7075 14.5007 11.299 14.5467C10.997 14.5801 10.6907 14.5759 10.3843 14.5759C10.0908 14.5759 9.77595 14.5299 9.52068 14.7013C9.35476 14.8099 9.26967 14.9896 9.31647 15.1818Z" fill="#5790D3"/>
<path d="M13.7883 12.2484C13.9499 11.9016 14.0393 11.5506 14.3201 11.2789C13.9797 11.1912 13.6351 11.1034 13.2948 11.0115C13.3586 11.2956 13.2352 11.6634 12.9927 11.8431C13.299 11.9643 13.6011 12.0855 13.9074 12.2066C13.8861 12.0896 13.9244 11.9601 13.984 11.8556C13.9755 11.8682 14.0903 11.6801 14.1031 11.7094C14.1414 11.6717 14.1159 11.6717 14.018 11.7135C14.0818 11.7052 14.1414 11.6968 14.2052 11.6885C14.4817 11.6425 14.6477 11.2998 14.5711 11.0533C14.3584 10.3512 13.5713 10.5894 13.1841 10.9864C12.831 11.35 12.6311 11.864 12.6864 12.3654C12.7332 12.7917 13.1884 13.172 13.6223 12.892C14.3754 12.4072 14.72 11.5422 14.4817 10.6855C14.3626 10.2593 13.7713 10.0838 13.4564 10.4181C13.0225 10.8736 12.7034 11.4879 12.8651 12.1189C12.9587 12.5159 13.6011 12.6454 13.7883 12.2484Z" fill="#5790D3"/>
<path d="M8.07878 12.7916C8.13409 12.8501 8.08729 12.7874 8.07878 12.7707C7.96391 12.5743 8.05326 12.7415 8.05751 12.7874C8.06177 12.8167 8.06177 12.8417 8.05326 12.871C8.07027 12.8292 8.07027 12.8292 8.05326 12.8626C8.01497 12.9086 7.99795 12.9462 7.93413 12.9713C7.86181 13.0005 7.79799 12.9922 7.72992 12.9588C7.81926 13.0005 7.65759 12.9044 7.74268 12.9713C7.81926 13.0298 7.70865 12.9044 7.7597 12.9922C7.78097 13.0256 7.79799 13.059 7.81926 13.0925C7.87031 13.1677 7.79373 12.988 7.81501 13.0841C7.8065 13.0005 7.8065 12.9838 7.8065 13.0214C7.8065 13.2638 8.00646 13.151 8.41063 12.6788C8.3766 12.6579 8.3766 12.6579 8.41914 12.6871C8.45318 12.708 8.48296 12.7373 8.49997 12.7749C8.44467 12.6913 8.53401 12.8919 8.50848 12.8C8.4787 12.6997 8.51274 12.9295 8.51274 12.8292C8.51274 12.8 8.50848 12.7707 8.50848 12.7415C8.51699 12.5952 8.49997 12.474 8.42339 12.3445C8.43616 12.4489 8.44892 12.5492 8.46594 12.6537L8.4787 12.6119C8.5723 12.3737 8.33831 12.1648 8.12133 12.1481C8.08304 12.1439 8.08729 12.1439 8.13835 12.1481C8.049 12.123 7.9554 12.123 7.86606 12.1481C7.76395 12.1773 7.67036 12.2358 7.59803 12.3152C7.4789 12.4448 7.40658 12.6244 7.40232 12.8C7.39807 13.0465 7.50018 13.2931 7.67886 13.4644C7.98093 13.7527 8.51699 13.7736 8.7595 13.3934C8.91691 13.1468 8.87437 12.8417 8.73397 12.5994C8.6191 12.403 8.44041 12.2066 8.2362 12.1021C7.92562 11.9475 7.55549 11.9934 7.31298 12.2442C7.07048 12.4991 7.0492 12.8961 7.29171 13.1552C7.50443 13.3808 7.84053 13.4435 8.07878 13.2178C8.20642 13.1008 8.1894 12.9128 8.07878 12.7916Z" fill="#5790D3"/>
<path d="M10.8954 10.2635C10.7507 10.1172 10.5933 10.0336 10.3976 9.96258C10.5252 10.0879 10.6528 10.2133 10.7805 10.3387C10.7167 10.1715 10.789 10.3554 10.7677 10.3554L10.7507 10.3805C10.7932 10.3554 10.8315 10.3345 10.8741 10.3136C10.8741 10.3136 11.0017 10.2718 11.0485 10.2593C10.9762 10.2676 10.9762 10.2676 11.0485 10.2635C11.006 10.2635 10.9677 10.2467 10.9336 10.2259C10.8868 9.73275 10.8188 9.59067 10.7337 9.79961C10.7167 9.83722 10.6954 9.87483 10.6741 9.91244C10.6528 9.95005 10.6316 9.98348 10.606 10.0211C10.6358 9.9793 10.6273 9.98348 10.5805 10.0378C10.6826 9.98766 10.7847 9.94169 10.8911 10.0127C10.9251 10.0378 10.9549 10.0712 10.9762 10.113C10.8656 9.96676 10.8443 9.94587 10.9166 10.0462C10.5592 9.5447 9.86152 9.75782 9.7977 10.3429C9.71687 11.0449 10.6443 11.3625 11.1804 11.0992C11.6739 10.8569 12.1249 10.0921 11.8951 9.56559C11.6271 8.94294 10.8741 9.01398 10.3593 9.24382C9.77218 9.50709 9.45309 10.1757 9.77218 10.7566C9.88705 10.9655 10.1636 11.07 10.3933 11.0031C10.589 10.9488 10.7422 10.8652 10.8911 10.7357C11.0357 10.6187 11.0145 10.3888 10.8954 10.2635Z" fill="#5790D3"/>
</svg>
