<svg width="169" height="196" viewBox="0 0 169 196" fill="none" xmlns="http://www.w3.org/2000/svg">
<g opacity="0.12">
<path d="M176.223 96.199C175.318 74.9445 163.803 54.4271 146.078 42.5508C128.393 30.6745 104.951 27.7259 84.8403 34.8108L85.9096 34.6469C68.8833 37.8003 52.9674 46.9328 42.0689 60.3243C30.0188 75.1492 24.3434 95.0932 27.3045 113.932C30.2656 132.77 41.9044 150.216 58.4783 159.758C70.8985 166.924 85.5806 169.627 99.9337 169.341C118.153 168.931 136.577 163.566 150.766 152.222C167.381 138.872 177.128 117.413 176.223 96.199Z" fill="white"/>
<path d="M153.152 97.4276C152.535 82.7255 144.556 68.5558 132.301 60.3243C120.045 52.0928 103.841 50.0452 89.9406 55.0005L90.6809 54.8776C78.9187 57.0481 67.8968 63.3548 60.3707 72.6102C52.022 82.8484 48.115 96.6495 50.1302 109.672C52.1865 122.695 60.2473 134.776 71.7216 141.37C80.317 146.325 90.4752 148.209 100.387 148.004C112.971 147.718 125.721 144.032 135.55 136.169C147.024 126.914 153.769 112.089 153.152 97.4276Z" fill="#CAE5E8"/>
<path d="M116.384 35.0563C87.8835 25.5553 57.8612 37.104 39.8478 60.6518C22.1224 83.7902 17.3928 120.238 36.0642 144.073C56.7919 170.528 96.1499 180.152 127.735 170.487C156.935 161.559 183.873 134.162 182.639 102.096C181.94 83.7082 170.383 64.5423 158.127 51.2736C145.09 37.1859 126.748 28.0944 107.254 30.3877C101.825 31.002 101.784 39.6021 107.254 38.9469C138.757 35.1792 164.379 64.2557 172.604 92.1445C181.323 121.753 156.523 150.625 129.997 160.413C103.1 170.323 69.7468 164.549 48.8957 144.482C28.5381 124.866 29.6074 92.4312 44.3718 69.6614C59.5063 46.2774 88.6649 35.5478 115.849 38.9059C118.194 39.2335 118.399 35.7116 116.384 35.0563Z" fill="#5790D3"/>
<path d="M98.2044 8.1506C94.7086 15.0307 97.094 25.5146 97.7109 32.8861C98.1633 38.7423 106.594 38.8242 106.923 32.8861C107.334 25.2279 107.869 13.5154 101.947 7.65917C100.878 6.63535 98.9035 6.75821 98.2044 8.1506Z" fill="#5790D3"/>
<path d="M91.4188 11.2219C98.0812 9.70665 104.291 8.80569 111.118 9.25617C117.041 9.6657 116.999 0.492279 111.118 0.0827513C103.469 -0.408682 95.3669 1.27038 89.0746 5.61138C86.2368 7.57711 87.923 12 91.4188 11.2219Z" fill="#5790D3"/>
<path d="M34.4597 36.8172C37.5031 42.7963 44.9058 46.6458 49.8821 50.9868C54.6939 55.205 59.4646 61.7984 65.7158 63.7231C68.389 64.5422 71.1856 61.7984 70.3219 59.1364C68.2245 52.5021 60.4105 47.5878 55.1052 43.4925C49.7587 39.3562 43.672 33.5819 36.6805 33.0495C34.5831 32.8448 33.6783 35.22 34.4597 36.8172Z" fill="#5790D3"/>
<path d="M36.8041 43.4517C38.8604 38.7831 42.315 35.1793 46.8389 32.8449C53.049 29.6097 47.538 20.2724 41.328 23.5077C34.7889 26.9068 30.2238 32.763 28.003 39.766C26.3579 44.8441 34.5832 48.4889 36.8041 43.4517Z" fill="#5790D3"/>
<path d="M6.98757 100.867C13.321 104.553 20.5182 105.208 27.7564 105.168C34.0076 105.127 33.7197 95.0113 27.7564 95.7075C21.2173 96.4446 14.6371 96.076 8.09799 96.7722C6.04166 96.936 4.97238 99.6799 6.98757 100.867Z" fill="#5790D3"/>
<path d="M1.02372 90.834C-0.45683 98.4512 -0.497957 105.905 2.01075 113.317C4.27271 120.033 14.1842 117.33 12.6625 110.409C11.4698 105.004 10.8529 99.2702 11.6755 93.7416C12.1279 90.793 10.9352 87.8854 7.80958 86.9844C5.09524 86.2063 1.59949 87.9263 1.02372 90.834Z" fill="#5790D3"/>
<path d="M13.0336 160.331C16.2003 165.45 20.7654 170.733 26.3997 173.19C29.3197 174.46 32.7332 174.05 34.4605 171.102C36.1878 168.153 34.954 164.918 32.363 163.075C28.9495 160.659 25.4126 158.283 22.8217 154.68C21.0532 152.181 17.8865 150.994 15.0488 152.673C12.4578 154.106 11.4297 157.71 13.0336 160.331Z" fill="#5790D3"/>
<path d="M80.6022 154.27C76.7774 157.587 76.2428 163.198 75.338 167.989C74.2276 173.682 73.1583 179.456 72.418 185.23C72.1713 187.36 74.1865 189.735 76.2017 190.186C76.6541 190.268 77.1064 190.35 77.5588 190.391C79.6563 190.513 82.165 188.711 82.5351 186.623C83.6044 180.93 84.2213 175.074 84.8793 169.3C85.4551 164.426 86.6067 159.062 83.9334 154.721C83.2343 153.451 81.6715 153.328 80.6022 154.27Z" fill="#5790D3"/>
<path d="M63.7 191.169C70.2802 195.714 80.5207 196.533 88.2524 195.673C95.5318 194.854 95.8197 183.51 88.2524 184.084C84.5099 184.37 80.7263 184.534 76.9838 184.248C73.2824 183.92 69.7456 182.855 66.0031 182.65C61.109 182.364 60.2454 188.793 63.7 191.169Z" fill="#5790D3"/>
<path d="M54.4477 116.266C49.4714 114.669 43.7137 116.225 38.6141 117.044C32.1161 118.109 25.6181 119.214 19.1201 120.32C13.2802 121.303 15.6655 130.64 21.5877 129.289C27.9623 127.855 34.378 126.463 40.7938 124.989C45.8523 123.801 51.281 123.064 55.3525 119.706C56.6274 118.682 55.846 116.716 54.4477 116.266Z" fill="#5790D3"/>
<path d="M17.104 115.979C10.8117 118.805 12.6212 130.927 14.3897 135.923C17.0629 143.376 27.7146 139.117 24.5479 131.664C23.4375 129.043 22.7383 126.34 22.4093 123.514C22.1215 120.934 22.1626 118.395 20.353 116.389C19.5305 115.447 18.1733 115.529 17.104 115.979Z" fill="#5790D3"/>
<path d="M137.11 55.0823C141.675 52.0928 145.253 47.4651 149.036 43.5337C152.696 39.6841 157.673 35.466 159.77 30.5926C161.662 26.2106 157.591 20.723 152.738 23.5897C148.049 26.3335 144.553 31.5755 141.181 35.7526C137.768 39.9708 133.408 44.1889 131.064 49.0623C129.254 52.7071 133.079 57.7033 137.11 55.0823Z" fill="#5790D3"/>
<path d="M146.487 23.0572C147.885 25.842 150.435 28.2172 152.615 30.4287C154.794 32.6401 156.686 34.9744 158.414 37.5135C163.02 44.3936 172.931 37.104 167.544 30.4696C163.102 24.982 157.015 18.4295 149.571 17.7333C146.651 17.4876 145.377 20.8867 146.487 23.0572Z" fill="#5790D3"/>
<path d="M138.961 138.463C144.472 148.086 153.108 156.318 160.635 164.386C165.611 169.75 173.507 161.765 168.654 156.4C161.251 148.209 153.849 139.077 144.719 132.729C141.141 130.231 137.028 135.022 138.961 138.463Z" fill="#5790D3"/>
<path d="M160.307 175.36C164.132 173.968 167.175 170.897 170.259 168.317C173.344 165.737 176.511 163.32 178.485 159.798C181.405 154.597 175.647 149.437 170.588 151.935C167.134 153.614 164.584 156.522 161.828 159.143C159.155 161.641 155.783 163.935 153.891 167.088C151.506 171.06 155.536 177.121 160.307 175.36Z" fill="#5790D3"/>
<path d="M153.193 100.54C158.745 103.488 165.325 102.669 171.453 102.382C179.143 102.014 186.834 101.277 194.483 100.458C202.174 99.5977 200.817 88.8271 193.044 89.9738C185.353 91.0795 177.622 91.8576 169.89 92.6767C164.214 93.25 158.087 93.0452 153.151 96.0757C151.589 97.0586 151.424 99.5977 153.193 100.54Z" fill="#5790D3"/>
<path d="M129.792 83.1352C131.724 85.5104 135.673 84.6914 138.14 83.8314C141.595 82.6437 145.049 81.4561 148.504 80.1866C156.441 77.238 151.506 65.5664 143.98 69.5389C140.649 71.2998 125.144 77.4427 129.792 83.1352Z" fill="#5790D3"/>
<path d="M143.32 68.4329C145.377 72.2006 147.68 75.9273 148.749 80.1454C149.654 83.8721 153.849 86.0836 157.468 85.1007C160.84 84.1997 163.883 79.9816 162.444 76.4187C159.73 69.7434 155.699 63.9281 148.461 61.8395C144.513 60.6928 141.47 65.0748 143.32 68.4329Z" fill="#5790D3"/>
<path d="M120.908 169.259C117.782 174.05 119.839 180.767 122.882 185.026C125.062 188.056 128.928 189.244 132.136 186.787C135.22 184.412 135.261 180.275 132.752 177.45C130.696 175.115 129.216 171.184 126.954 168.481C125.267 166.515 122.142 167.375 120.908 169.259Z" fill="#5790D3"/>
<path d="M29.2781 163.32C36.3519 161.682 42.1507 156.522 47.2504 151.608C51.8154 147.226 44.536 140.018 40.3 144.687C35.9406 149.519 30.553 153.451 26.5226 158.57C24.8365 160.74 26.317 164.016 29.2781 163.32Z" fill="#5790D3"/>
<path d="M78.2176 92.0215C75.8323 88.7043 72.3365 86.5748 68.8408 84.609C66.0442 83.0119 62.4662 84.1995 61.2324 87.1481C59.9986 90.0967 61.6025 93.4548 64.7282 94.3558C68.6352 95.5025 72.5422 96.5263 76.6548 95.953C78.2587 95.7482 79.1224 93.332 78.2176 92.0215Z" fill="#5790D3"/>
<path d="M60.3707 90.5473C60.2062 90.4245 60.0417 90.3016 59.8772 90.1788C60.4118 91.4892 60.9465 92.8407 61.5222 94.1512C61.6045 93.5778 61.6867 93.0454 61.6867 92.4721C61.4811 93.2502 61.2343 94.0693 61.0287 94.8474C61.7279 93.6188 61.7279 92.3492 62.2214 91.1207C61.1932 93.6597 63.6608 90.3426 63.9898 89.933C66.1284 87.353 68.0202 84.6501 69.912 81.8653C65.2236 79.8996 60.5352 77.9339 55.8468 75.9681C54.7775 81.251 52.7623 85.633 49.8012 90.1378C47.457 93.7007 49.102 98.8198 52.6389 100.908C56.6282 103.243 60.9465 101.523 63.4552 98.0826C67.2799 92.7997 69.6652 86.452 70.6934 80.0634C71.3103 76.2958 70.0354 72.5281 66.2518 71.0129C62.6326 69.5795 58.7256 70.849 56.6282 74.1662C53.5848 78.9577 49.4722 84.4454 49.9657 90.4245C50.4592 96.1988 55.8879 98.656 60.3707 95.9531C62.5915 94.6426 62.2214 91.9397 60.3707 90.5473Z" fill="#5790D3"/>
<path d="M104.086 71.7909C105.896 69.3747 105.772 66.3851 105.813 63.5184C105.854 60.2832 106.06 57.0479 106.348 53.8536C106.883 47.5878 96.3542 47.383 96.3954 53.8536C96.4365 59.2593 95.4906 68.269 99.7677 72.3642C101.166 73.6747 103.017 73.1833 104.086 71.7909Z" fill="#5790D3"/>
<path d="M89.1176 54.0586C90.2692 57.0481 93.3536 57.8262 96.3147 58.2358C99.9339 58.7272 103.676 58.8091 107.337 59.0548C106.843 55.3691 106.35 51.6833 105.815 47.9976C101.291 49.2671 97.055 49.7176 92.4077 48.6119C92.8601 52.1748 93.3536 55.7376 93.806 59.3005C94.9576 58.7272 96.3559 58.7682 97.6308 58.6043C103.347 57.7443 102.73 48.9804 97.6308 47.7109C94.135 46.8509 91.0506 47.629 87.8838 49.2671C83.4833 51.5605 84.4292 58.8501 89.2821 59.9558C95.6978 61.3891 102.607 61.3891 108.776 58.891C111.367 57.8672 113.259 55.6967 112.806 52.7071C112.395 50.0452 110.133 47.7109 107.254 47.8338C104.211 47.9157 86.3621 46.9738 89.1176 54.0586Z" fill="#5790D3"/>
<path d="M101.126 127.118C96.7661 131.541 97.1362 139.772 96.3548 145.506C95.4501 152.427 107.582 152.877 107.541 145.506C107.5 140.059 108.734 132.237 105.197 127.65C104.251 126.34 102.4 125.808 101.126 127.118Z" fill="#5790D3"/>
<path d="M90.0623 148.782C91.913 156.154 103.017 157.341 109.227 157.055C113.134 156.891 116.507 153.86 116.507 149.806C116.507 146.243 113.175 142.107 109.227 142.558C106.307 142.885 103.346 142.844 100.385 142.844C97.5473 142.844 94.5039 142.394 92.0363 144.073C90.4324 145.138 89.6099 146.898 90.0623 148.782Z" fill="#5790D3"/>
<path d="M133.287 120.034C134.85 116.635 135.713 113.195 138.428 110.533C135.137 109.673 131.806 108.813 128.516 107.912C129.133 110.696 127.94 114.3 125.596 116.061C128.557 117.249 131.477 118.436 134.438 119.624C134.233 118.477 134.603 117.208 135.179 116.184C135.096 116.307 136.207 114.464 136.33 114.751C136.7 114.382 136.454 114.382 135.508 114.792C136.125 114.71 136.7 114.628 137.317 114.546C139.99 114.095 141.594 110.737 140.854 108.321C138.798 101.441 131.189 103.775 127.447 107.666C124.033 111.229 122.1 116.266 122.635 121.18C123.087 125.358 127.488 129.084 131.683 126.34C138.962 121.59 142.293 113.113 139.99 104.717C138.839 100.54 133.122 98.8201 130.079 102.096C125.884 106.56 122.8 112.58 124.362 118.764C125.267 122.655 131.477 123.924 133.287 120.034Z" fill="#5790D3"/>
<path d="M78.0933 125.358C78.6279 125.931 78.1755 125.317 78.0933 125.153C76.9829 123.228 77.8465 124.866 77.8876 125.317C77.9288 125.603 77.9288 125.849 77.8465 126.136C78.011 125.726 78.011 125.726 77.8465 126.054C77.4764 126.504 77.3119 126.873 76.695 127.119C75.9958 127.405 75.3789 127.323 74.7209 126.996C75.5846 127.405 74.0218 126.463 74.8443 127.119C75.5846 127.692 74.5153 126.463 75.0088 127.323C75.2144 127.651 75.3789 127.979 75.5846 128.306C76.0781 129.043 75.3378 127.282 75.5434 128.224C75.4612 127.405 75.4612 127.242 75.4612 127.61C75.4612 129.985 77.3941 128.88 81.3011 124.252C80.9721 124.047 80.9721 124.047 81.3834 124.334C81.7124 124.539 82.0003 124.825 82.1648 125.194C81.6301 124.375 82.4938 126.341 82.247 125.44C81.9592 124.457 82.2882 126.709 82.2882 125.726C82.2882 125.44 82.247 125.153 82.247 124.866C82.3293 123.433 82.1648 122.245 81.4245 120.976C81.5479 122 81.6713 122.982 81.8358 124.006L81.9592 123.597C82.8639 121.262 80.602 119.215 78.5045 119.051C78.1344 119.01 78.1755 119.01 78.669 119.051C77.8054 118.805 76.9006 118.805 76.037 119.051C75.0499 119.338 74.1451 119.911 73.446 120.689C72.2945 121.959 71.5953 123.72 71.5542 125.44C71.513 127.856 72.5001 130.272 74.2274 131.951C77.1474 134.777 82.3293 134.982 84.6735 131.255C86.1952 128.839 85.7839 125.849 84.4267 123.474C83.3163 121.549 81.589 119.624 79.615 118.6C76.6127 117.085 73.0347 117.536 70.6905 119.993C68.3463 122.491 68.1407 126.382 70.4849 128.921C72.5412 131.132 75.7902 131.746 78.0933 129.535C79.3271 128.388 79.1626 126.545 78.0933 125.358Z" fill="#5790D3"/>
<path d="M105.32 100.581C103.922 99.1475 102.4 98.3284 100.508 97.6322C101.742 98.8608 102.976 100.089 104.21 101.318C103.593 99.6799 104.292 101.482 104.086 101.482L103.922 101.728C104.333 101.482 104.703 101.277 105.115 101.072C105.115 101.072 106.348 100.663 106.801 100.54C106.102 100.622 106.102 100.622 106.801 100.581C106.39 100.581 106.019 100.417 105.69 100.212C105.238 95.3798 104.58 93.9874 103.757 96.0351C103.593 96.4037 103.387 96.7722 103.182 97.1408C102.976 97.5094 102.77 97.837 102.524 98.2056C102.812 97.796 102.729 97.837 102.277 98.3694C103.264 97.878 104.251 97.4275 105.279 98.1237C105.608 98.3694 105.896 98.697 106.102 99.1065C105.032 97.6732 104.827 97.4684 105.526 98.4513C102.071 93.537 95.3266 95.6256 94.7097 101.359C93.9283 108.239 102.894 111.351 108.076 108.771C112.846 106.396 117.206 98.9018 114.985 93.7417C112.394 87.6398 105.115 88.336 100.138 90.5884C94.4629 93.1684 91.3784 99.7208 94.4629 105.413C95.5733 107.461 98.2465 108.485 100.467 107.829C102.359 107.297 103.84 106.478 105.279 105.209C106.677 104.062 106.472 101.809 105.32 100.581Z" fill="#5790D3"/>
</g>
</svg>
