<svg width="29" height="28" viewBox="0 0 29 28" fill="none" xmlns="http://www.w3.org/2000/svg">
<path d="M24.3063 13.7426C24.1815 10.7062 22.5932 7.7752 20.1483 6.07859C17.7091 4.38197 14.4757 3.96074 11.7018 4.97286L11.8493 4.94946C9.50084 5.39994 7.30554 6.70458 5.8023 8.61766C4.14022 10.7355 3.3574 13.5846 3.76583 16.2758C4.17426 18.967 5.77961 21.4593 8.06567 22.8224C9.7788 23.8462 11.8039 24.2324 13.7837 24.1914C16.2966 24.1329 18.838 23.3665 20.795 21.7459C23.0867 19.8387 24.4311 16.7731 24.3063 13.7426Z" fill="white"/>
<path d="M21.1241 13.9181C21.0391 11.8178 19.9386 9.79359 18.2481 8.61766C16.5577 7.44173 14.3227 7.14921 12.4053 7.85711L12.5075 7.83956C10.8851 8.14963 9.36483 9.05059 8.32674 10.3728C7.1752 11.8354 6.6363 13.807 6.91426 15.6674C7.19789 17.5278 8.30972 19.2537 9.89238 20.1956C11.078 20.9035 12.4791 21.1726 13.8462 21.1434C15.582 21.1024 17.3405 20.5759 18.6963 19.4526C20.2789 18.1304 21.2092 16.0126 21.1241 13.9181Z" fill="#CAE5E8"/>
<path d="M16.0529 5.00819C12.1218 3.6509 7.98076 5.30071 5.49615 8.66469C3.05126 11.9702 2.39891 17.177 4.97427 20.5819C7.83327 24.3613 13.262 25.7361 17.6185 24.3555C21.6461 23.0801 25.3616 19.1661 25.1915 14.5853C25.095 11.9585 23.501 9.22047 21.8106 7.32495C20.0124 5.31241 17.4824 4.01362 14.7936 4.34124C14.0448 4.429 14.0391 5.65758 14.7936 5.56398C19.1388 5.02574 22.6728 9.17952 23.8073 13.1636C25.0099 17.3935 21.5893 21.518 17.9305 22.9163C14.2206 24.332 9.62014 23.5071 6.74413 20.6404C3.93619 17.8381 4.08367 13.2046 6.12014 9.95177C8.20766 6.6112 12.2295 5.07839 15.9791 5.55813C16.3025 5.60493 16.3308 5.10179 16.0529 5.00819Z" fill="#5790D3"/>
<path d="M13.5453 1.16444C13.0632 2.14731 13.3922 3.64501 13.4773 4.69808C13.5397 5.53469 14.7026 5.54639 14.7479 4.69808C14.8047 3.60406 14.8784 1.93084 14.0616 1.09424C13.9141 0.947977 13.6418 0.965528 13.5453 1.16444Z" fill="#5790D3"/>
<path d="M12.6094 1.60313C13.5284 1.38666 14.385 1.25796 15.3266 1.32231C16.1435 1.38081 16.1378 0.0703256 15.3266 0.0118216C14.2715 -0.0583831 13.154 0.181483 12.2861 0.801625C11.8947 1.08244 12.1273 1.71429 12.6094 1.60313Z" fill="#5790D3"/>
<path d="M4.75271 5.25974C5.17248 6.11389 6.19355 6.66383 6.87994 7.28397C7.54363 7.88656 8.20165 8.82848 9.06389 9.10345C9.43261 9.22045 9.81835 8.82848 9.69922 8.4482C9.40992 7.50044 8.33212 6.79839 7.60036 6.21335C6.86292 5.62246 6.02337 4.79755 5.05903 4.7215C4.76973 4.69225 4.64493 5.03157 4.75271 5.25974Z" fill="#5790D3"/>
<path d="M5.07624 6.20749C5.35987 5.54055 5.83637 5.02571 6.46035 4.69224C7.31692 4.23006 6.55679 2.89617 5.70022 3.35835C4.79828 3.84393 4.16862 4.68054 3.8623 5.68096C3.63539 6.40641 4.76991 6.92709 5.07624 6.20749Z" fill="#5790D3"/>
<path d="M0.963904 14.4095C1.83749 14.9361 2.83019 15.0297 3.82857 15.0238C4.69081 15.018 4.6511 13.5729 3.82857 13.6724C2.92663 13.7777 2.01901 13.725 1.11706 13.8245C0.833434 13.8479 0.685946 14.2399 0.963904 14.4095Z" fill="#5790D3"/>
<path d="M0.141203 12.9763C-0.0630111 14.0645 -0.0686837 15.1293 0.277345 16.1882C0.589339 17.1476 1.95644 16.7615 1.74655 15.7728C1.58205 15.0006 1.49696 14.1815 1.61041 13.3917C1.67281 12.9705 1.5083 12.5551 1.07718 12.4264C0.702791 12.3152 0.220619 12.5609 0.141203 12.9763Z" fill="#5790D3"/>
<path d="M1.79762 22.9045C2.23441 23.6358 2.86407 24.3905 3.64122 24.7415C4.04397 24.9229 4.5148 24.8644 4.75305 24.4432C4.9913 24.0219 4.82112 23.5597 4.46375 23.2965C3.99292 22.9513 3.50508 22.612 3.1477 22.0972C2.90378 21.7403 2.46699 21.5706 2.07558 21.8105C1.7182 22.0152 1.57639 22.5301 1.79762 22.9045Z" fill="#5790D3"/>
<path d="M11.1175 22.0385C10.59 22.5124 10.5162 23.3139 10.3914 23.9984C10.2383 24.8116 10.0908 25.6365 9.98868 26.4614C9.95464 26.7656 10.2326 27.1049 10.5106 27.1693C10.573 27.181 10.6354 27.1927 10.6978 27.1985C10.9871 27.2161 11.3331 26.9587 11.3841 26.6603C11.5316 25.8471 11.6167 25.0105 11.7075 24.1856C11.7869 23.4894 11.9457 22.723 11.577 22.1028C11.4806 21.9215 11.265 21.9039 11.1175 22.0385Z" fill="#5790D3"/>
<path d="M8.78605 27.3098C9.69367 27.9592 11.1061 28.0762 12.1726 27.9533C13.1767 27.8363 13.2164 26.2157 12.1726 26.2976C11.6564 26.3386 11.1345 26.362 10.6183 26.321C10.1078 26.2742 9.61992 26.1221 9.10372 26.0929C8.42868 26.0519 8.30955 26.9704 8.78605 27.3098Z" fill="#5790D3"/>
<path d="M7.51003 16.6094C6.82364 16.3812 6.02948 16.6035 5.32608 16.7205C4.4298 16.8727 3.53353 17.0306 2.63726 17.1886C1.83175 17.329 2.16076 18.6629 2.97762 18.4698C3.85687 18.2651 4.7418 18.0661 5.62672 17.8555C6.32446 17.6859 7.07324 17.5806 7.63483 17.1008C7.81068 16.9546 7.7029 16.6737 7.51003 16.6094Z" fill="#5790D3"/>
<path d="M2.35889 16.5684C1.49098 16.972 1.74058 18.7038 1.9845 19.4175C2.35322 20.4823 3.82242 19.8738 3.38563 18.8091C3.23247 18.4346 3.13604 18.0485 3.09066 17.6448C3.05095 17.2763 3.05662 16.9135 2.80703 16.6269C2.69357 16.4923 2.50638 16.504 2.35889 16.5684Z" fill="#5790D3"/>
<path d="M18.9117 7.86901C19.5413 7.44193 20.0349 6.78084 20.5567 6.2192C21.0616 5.66926 21.748 5.06667 22.0373 4.37047C22.2982 3.74448 21.7366 2.96053 21.0673 3.37006C20.4206 3.76203 19.9384 4.51088 19.4733 5.10762C19.0024 5.71021 18.4011 6.31281 18.0778 7.009C17.8282 7.52969 18.3558 8.24344 18.9117 7.86901Z" fill="#5790D3"/>
<path d="M20.2052 3.29385C20.3981 3.69168 20.7498 4.031 21.0504 4.34692C21.3511 4.66284 21.612 4.99631 21.8503 5.35904C22.4856 6.3419 23.8527 5.30053 23.1096 4.35277C22.497 3.56882 21.6574 2.63275 20.6307 2.5333C20.2279 2.49819 20.0521 2.98378 20.2052 3.29385Z" fill="#5790D3"/>
<path d="M19.1674 19.7803C19.9275 21.1551 21.1187 22.331 22.1568 23.4836C22.8432 24.25 23.9323 23.1091 23.263 22.3427C22.2419 21.1726 21.2208 19.868 19.9615 18.9612C19.468 18.6043 18.9007 19.2888 19.1674 19.7803Z" fill="#5790D3"/>
<path d="M22.1114 25.0515C22.6389 24.8525 23.0587 24.4138 23.4841 24.0452C23.9096 23.6766 24.3464 23.3314 24.6186 22.8283C25.0214 22.0853 24.2272 21.3482 23.5295 21.705C23.053 21.9449 22.7013 22.3603 22.3212 22.7347C21.9525 23.0916 21.4874 23.4192 21.2264 23.8697C20.8974 24.4372 21.4533 25.303 22.1114 25.0515Z" fill="#5790D3"/>
<path d="M21.1298 14.3629C21.8956 14.7841 22.8032 14.6671 23.6484 14.6262C24.7092 14.5735 25.77 14.4682 26.8251 14.3512C27.8859 14.2283 27.6987 12.6897 26.6265 12.8535C25.5658 13.0115 24.4993 13.1226 23.4329 13.2396C22.6501 13.3215 21.8048 13.2923 21.1241 13.7252C20.9086 13.8656 20.8859 14.2283 21.1298 14.3629Z" fill="#5790D3"/>
<path d="M27.4323 15.6441C27.8577 15.258 27.8237 14.4389 27.9031 13.9007C28.0052 13.1928 28.0676 12.5258 27.8974 11.8179C27.7896 11.3616 27.2905 11.0866 26.8593 11.2095C26.7913 11.227 26.7232 11.2621 26.6551 11.2972C26.3318 11.4786 26.1673 11.9232 26.2694 12.2801C26.4963 13.0875 26.224 13.9533 26.3318 14.7841C26.3942 15.2404 26.8764 16.1472 27.4323 15.6441Z" fill="#5790D3"/>
<path d="M17.9021 11.8765C18.1687 12.2158 18.7133 12.0988 19.0536 11.9759C19.5301 11.8063 20.0066 11.6366 20.4831 11.4553C21.5779 11.034 20.8972 9.36667 19.8591 9.93416C19.3996 10.1857 17.2611 11.0633 17.9021 11.8765Z" fill="#5790D3"/>
<path d="M19.7685 9.77617C20.0522 10.3144 20.3698 10.8468 20.5173 11.4494C20.6421 11.9818 21.2207 12.2977 21.7199 12.1573C22.1851 12.0286 22.6048 11.426 22.4063 10.917C22.0319 9.96338 21.476 9.13262 20.4776 8.83425C19.933 8.67044 19.5133 9.29643 19.7685 9.77617Z" fill="#5790D3"/>
<path d="M16.6767 24.1798C16.2456 24.8643 16.5292 25.8237 16.949 26.4322C17.2497 26.8651 17.7829 27.0348 18.2254 26.6838C18.6508 26.3444 18.6565 25.7535 18.3104 25.3499C18.0268 25.0164 17.8226 24.4548 17.5106 24.0686C17.278 23.7878 16.8469 23.9107 16.6767 24.1798Z" fill="#5790D3"/>
<path d="M4.03843 23.3316C5.01412 23.0975 5.81395 22.3604 6.51736 21.6583C7.14702 21.0323 6.14297 20.0027 5.55869 20.6696C4.95739 21.36 4.21428 21.9216 3.65836 22.6529C3.42578 22.963 3.63 23.431 4.03843 23.3316Z" fill="#5790D3"/>
<path d="M10.7885 13.1459C10.4595 12.672 9.9773 12.3678 9.49513 12.087C9.10939 11.8588 8.61588 12.0285 8.4457 12.4497C8.27552 12.871 8.49675 13.3507 8.92787 13.4794C9.46677 13.6432 10.0057 13.7895 10.5729 13.7076C10.7942 13.6783 10.9133 13.3331 10.7885 13.1459Z" fill="#5790D3"/>
<path d="M8.32697 12.9354C8.30428 12.9179 8.28159 12.9003 8.2589 12.8828C8.33265 13.07 8.40639 13.2631 8.48581 13.4503C8.49715 13.3684 8.5085 13.2923 8.5085 13.2104C8.48013 13.3216 8.4461 13.4386 8.41774 13.5497C8.51417 13.3742 8.51417 13.1929 8.58224 13.0173C8.44043 13.3801 8.78078 12.9062 8.82616 12.8477C9.12114 12.4791 9.38208 12.093 9.64302 11.6952C8.99634 11.4143 8.34966 11.1335 7.70299 10.8527C7.5555 11.6074 7.27754 12.2334 6.86911 12.8769C6.54577 13.3859 6.77268 14.1172 7.26052 14.4156C7.81077 14.7491 8.40639 14.5033 8.75242 14.0119C9.27997 13.2572 9.60898 12.3504 9.7508 11.4377C9.83589 10.8995 9.66004 10.3613 9.13816 10.1448C8.63897 9.94003 8.10007 10.1214 7.81077 10.5953C7.39099 11.2798 6.82373 12.0637 6.8918 12.9179C6.95987 13.7428 7.70866 14.0938 8.32697 13.7077C8.63329 13.5205 8.58224 13.1344 8.32697 12.9354Z" fill="#5790D3"/>
<path d="M14.3569 10.2558C14.6065 9.91064 14.5895 9.48356 14.5952 9.07403C14.6008 8.61185 14.6292 8.14966 14.6689 7.69333C14.7426 6.79822 13.2905 6.76897 13.2961 7.69333C13.3018 8.46559 13.1713 9.75267 13.7613 10.3377C13.9542 10.5249 14.2094 10.4547 14.3569 10.2558Z" fill="#5790D3"/>
<path d="M12.2919 7.72255C12.4508 8.14963 12.8762 8.26079 13.2846 8.31929C13.7838 8.3895 14.3 8.4012 14.8049 8.4363C14.7368 7.90976 14.6688 7.38323 14.595 6.85669C13.971 7.03805 13.3867 7.10241 12.7457 6.94445C12.8081 7.45343 12.8762 7.96242 12.9386 8.4714C13.0974 8.3895 13.2903 8.39535 13.4662 8.37194C14.2547 8.24909 14.1696 6.9971 13.4662 6.81574C12.984 6.69288 12.5585 6.80404 12.1218 7.03805C11.5148 7.36568 11.6453 8.40705 12.3146 8.56501C13.1996 8.76977 14.1525 8.76977 15.0034 8.4129C15.3608 8.26664 15.6218 7.95657 15.5594 7.52949C15.5026 7.14921 15.1906 6.81574 14.7936 6.83329C14.3738 6.84499 11.9119 6.71043 12.2919 7.72255Z" fill="#5790D3"/>
<path d="M13.9484 18.1598C13.3471 18.7916 13.3981 19.9676 13.2903 20.7866C13.1655 21.7753 14.839 21.8397 14.8333 20.7866C14.8276 20.0085 14.9978 18.8911 14.51 18.2358C14.3795 18.0486 14.1242 17.9726 13.9484 18.1598Z" fill="#5790D3"/>
<path d="M12.4223 21.2547C12.6775 22.3078 14.2092 22.4774 15.0657 22.4365C15.6046 22.4131 16.0698 21.9801 16.0698 21.4009C16.0698 20.892 15.6103 20.3011 15.0657 20.3654C14.663 20.4122 14.2545 20.4064 13.8461 20.4064C13.4547 20.4064 13.0349 20.342 12.6946 20.5819C12.4733 20.734 12.3599 20.9856 12.4223 21.2547Z" fill="#5790D3"/>
<path d="M18.3842 17.1477C18.5998 16.6621 18.7189 16.1707 19.0933 15.7904C18.6395 15.6675 18.18 15.5447 17.7262 15.416C17.8113 15.8138 17.6468 16.3286 17.3234 16.5802C17.7319 16.7499 18.1346 16.9195 18.543 17.0892C18.5147 16.9254 18.5657 16.744 18.6451 16.5978C18.6338 16.6153 18.787 16.352 18.804 16.393C18.855 16.3403 18.821 16.3403 18.6905 16.3988C18.7756 16.3871 18.855 16.3754 18.9401 16.3637C19.3088 16.2994 19.5301 15.8197 19.428 15.4745C19.1443 14.4916 18.0949 14.8251 17.5787 15.3809C17.1079 15.8899 16.8413 16.6095 16.915 17.3115C16.9774 17.9082 17.5844 18.4406 18.163 18.0487C19.167 17.37 19.6265 16.159 19.3088 14.9597C19.15 14.3629 18.3615 14.1172 17.9417 14.5852C17.3631 15.2229 16.9377 16.0829 17.1532 16.9663C17.278 17.5221 18.1346 17.7035 18.3842 17.1477Z" fill="#5790D3"/>
<path d="M10.7714 17.9082C10.8451 17.9901 10.7827 17.9024 10.7714 17.879C10.6182 17.604 10.7374 17.838 10.743 17.9024C10.7487 17.9433 10.7487 17.9784 10.7374 18.0194C10.76 17.9609 10.76 17.9609 10.7374 18.0077C10.6863 18.0721 10.6636 18.1247 10.5785 18.1598C10.4821 18.2008 10.397 18.1891 10.3062 18.1423C10.4254 18.2008 10.2098 18.0662 10.3232 18.1598C10.4254 18.2417 10.2779 18.0662 10.3459 18.1891C10.3743 18.2359 10.397 18.2827 10.4254 18.3295C10.4934 18.4348 10.3913 18.1832 10.4197 18.3178C10.4083 18.2008 10.4083 18.1774 10.4083 18.23C10.4083 18.5693 10.675 18.4114 11.2138 17.7503C11.1685 17.721 11.1685 17.721 11.2252 17.762C11.2706 17.7912 11.3103 17.8322 11.333 17.8848C11.2592 17.7678 11.3784 18.0487 11.3443 17.9199C11.3046 17.7795 11.35 18.1013 11.35 17.9609C11.35 17.9199 11.3443 17.879 11.3443 17.838C11.3557 17.6333 11.333 17.4636 11.2309 17.2823C11.2479 17.4285 11.2649 17.5689 11.2876 17.7152L11.3046 17.6567C11.4294 17.3232 11.1174 17.0307 10.8281 17.0073C10.7771 17.0014 10.7827 17.0014 10.8508 17.0073C10.7317 16.9722 10.6069 16.9722 10.4878 17.0073C10.3516 17.0482 10.2268 17.1301 10.1304 17.2413C9.97155 17.4227 9.87511 17.6742 9.86944 17.9199C9.86377 18.2651 9.99991 18.6103 10.2382 18.8502C10.6409 19.2538 11.3557 19.2831 11.679 18.7507C11.8889 18.4055 11.8322 17.9784 11.645 17.6391C11.4918 17.3642 11.2536 17.0892 10.9813 16.9429C10.5672 16.7265 10.0737 16.7908 9.75032 17.1418C9.42698 17.4987 9.39861 18.0545 9.72195 18.4172C10.0056 18.7331 10.4537 18.8209 10.7714 18.505C10.9416 18.3412 10.9189 18.0779 10.7714 17.9082Z" fill="#5790D3"/>
<path d="M14.5266 14.3688C14.3338 14.164 14.1239 14.047 13.863 13.9476C14.0331 14.1231 14.2033 14.2986 14.3735 14.4741C14.2884 14.2401 14.3848 14.4975 14.3565 14.4975L14.3338 14.5326C14.3905 14.4975 14.4416 14.4683 14.4983 14.439C14.4983 14.439 14.6685 14.3805 14.7309 14.3629C14.6344 14.3746 14.6344 14.3746 14.7309 14.3688C14.6741 14.3688 14.6231 14.3454 14.5777 14.3161C14.5153 13.6258 14.4245 13.4269 14.3111 13.7194C14.2884 13.7721 14.26 13.8247 14.2317 13.8774C14.2033 13.93 14.1749 13.9768 14.1409 14.0295C14.1806 13.971 14.1693 13.9768 14.1069 14.0529C14.243 13.9827 14.3792 13.9183 14.521 14.0178C14.5664 14.0529 14.6061 14.0997 14.6344 14.1582C14.4869 13.9534 14.4586 13.9242 14.555 14.0646C14.0785 13.3625 13.1482 13.6609 13.0631 14.48C12.9553 15.4628 14.192 15.9075 14.9067 15.5389C15.5647 15.1996 16.166 14.1289 15.8597 13.3918C15.5023 12.5201 14.4983 12.6195 13.8119 12.9413C13.0291 13.3099 12.6036 14.2459 13.0291 15.0591C13.1822 15.3517 13.551 15.4979 13.8573 15.4043C14.1182 15.3283 14.3224 15.2113 14.521 15.0299C14.7138 14.8661 14.6855 14.5443 14.5266 14.3688Z" fill="#5790D3"/>
</svg>
